<?xml version="1.0" encoding="UTF-8"?>
<svg id="_圖層_1" data-name="圖層 1" xmlns="http://www.w3.org/2000/svg" version="1.1" viewBox="0 0 954.96 311.04">
  <defs>
    <style>
      .cls-1 {
        fill: #242d30;
      }

      .cls-1, .cls-2, .cls-3, .cls-4, .cls-5, .cls-6, .cls-7, .cls-8, .cls-9, .cls-10, .cls-11, .cls-12, .cls-13, .cls-14, .cls-15, .cls-16, .cls-17, .cls-18, .cls-19, .cls-20, .cls-21, .cls-22, .cls-23, .cls-24, .cls-25, .cls-26, .cls-27, .cls-28, .cls-29, .cls-30, .cls-31, .cls-32, .cls-33, .cls-34, .cls-35, .cls-36, .cls-37, .cls-38, .cls-39, .cls-40, .cls-41, .cls-42, .cls-43, .cls-44, .cls-45, .cls-46, .cls-47, .cls-48, .cls-49, .cls-50, .cls-51, .cls-52, .cls-53, .cls-54 {
        stroke-width: 0px;
      }

      .cls-2 {
        fill: #85a479;
      }

      .cls-3 {
        fill: #202929;
      }

      .cls-4 {
        fill: #162813;
      }

      .cls-5 {
        fill: #365442;
      }

      .cls-6 {
        fill: #d8dbdb;
      }

      .cls-7 {
        fill: #1c3018;
      }

      .cls-8 {
        fill: #f8fafa;
      }

      .cls-9 {
        fill: #132610;
      }

      .cls-10 {
        fill: #172b14;
      }

      .cls-11 {
        fill: #041707;
      }

      .cls-12 {
        fill: #4c6e55;
      }

      .cls-13 {
        fill: #d3d6d5;
      }

      .cls-14 {
        fill: #263032;
      }

      .cls-15 {
        fill: #192727;
      }

      .cls-16 {
        fill: #7da16d;
      }

      .cls-17 {
        fill: #725a38;
      }

      .cls-18 {
        fill: #051305;
      }

      .cls-19 {
        fill: #172913;
      }

      .cls-20 {
        fill: #273132;
      }

      .cls-21 {
        fill: #031202;
      }

      .cls-22 {
        fill: #608c5e;
      }

      .cls-23 {
        fill: #779969;
      }

      .cls-24 {
        fill: #1c2e19;
      }

      .cls-25 {
        fill: #d7dbdc;
      }

      .cls-26 {
        fill: #1b2f17;
      }

      .cls-27 {
        fill: #d5d8d8;
      }

      .cls-28 {
        fill: #d2d7d6;
      }

      .cls-29 {
        fill: #6e5433;
      }

      .cls-30 {
        fill: #d9dfdf;
      }

      .cls-31 {
        fill: #1a261a;
      }

      .cls-32 {
        fill: #1a2829;
      }

      .cls-33 {
        fill: #192b17;
      }

      .cls-34 {
        fill: #222d2f;
      }

      .cls-35 {
        fill: #021101;
      }

      .cls-36 {
        fill: #bbc0c0;
      }

      .cls-37 {
        fill: #d8d9d9;
      }

      .cls-38 {
        fill: #283231;
      }

      .cls-39 {
        fill: #1f2b1e;
      }

      .cls-40 {
        fill: #d7dbda;
      }

      .cls-41 {
        fill: #283134;
      }

      .cls-42 {
        fill: #d3d7d7;
      }

      .cls-43 {
        fill: #212a2c;
      }

      .cls-44 {
        fill: #122111;
      }

      .cls-45 {
        fill: #f5f7f4;
      }

      .cls-46 {
        fill: #729966;
      }

      .cls-47 {
        fill: #5a7b57;
      }

      .cls-48 {
        fill: #192a16;
      }

      .cls-49 {
        fill: #031102;
      }

      .cls-50 {
        fill: #709563;
      }

      .cls-51 {
        fill: #101c11;
      }

      .cls-52 {
        fill: #fefefe;
      }

      .cls-53 {
        fill: #172a14;
      }

      .cls-54 {
        fill: #152325;
      }
    </style>
  </defs>
  <path class="cls-45" d="M22.09,75c.95-3.64,3.85-5.97,5.9-8.87,3.42-1.74,5.06-5.21,7.39-7.92,14.32-16.62,30.66-30.68,50.22-40.81.6-.31,1.12-.7,1.45-1.31l3.04-1.9c3.95,0,7.17-2.22,10.64-3.58,10.14-3.98,20.68-6.39,31.32-8.5,10.22-2.34,20.58-2.67,30.89-1.31,3.36.44,7-.79,10.12,1.34,8.33,2.03,16.91,2.85,25.13,5.54,19.03,6.22,36.18,15.62,51.52,28.57,15.68,13.24,28.59,28.67,38.36,46.67,10.2,18.8,16.19,38.85,16.94,60.33.06,1.63.34,3.34-.57,4.88-2.34,1.81-4.32.6-6.33-.73-1.62-1.07-3.48-2.82-5.08-.31-1.23,1.94-.48,3.9,1.51,5.12,1.9,1.16,3.94,2.1,2.42,4.96-1.57,2.97-3.7,2.57-5.76.92-1.95,1.92.3,6.68-4.65,5.7-1.87-7.04-.64-14.22-.81-21.32-.23-9.36-.19-9.85-9.02-7.28-21.39,6.21-43.3,10.69-63.96,19.31-4.61,1.93-8.97,4.38-13.49,6.49-1.79.83-3.48,2.04-5.63,1.62-1.27-2.18-2.73-1.93-4.78-.82-3.73,2.02-9.81-1.45-10.11-5.53-.1-1.39.92-2.08,1.86-2.74,2.45-1.72,4.72-3.66,7.32-5.19,3.28-1.92,4.77-4.83,2.96-8.43-1.63-3.23-.68-4.94,2.48-6.04,1.59-.55,2.22-1.87,2.36-3.5.6-7.01-.58-13.9-1.25-20.83-.05-.49-.22-1.1-.6-1.34-4.95-3.14-4.05-8.35-4.52-12.99-.31-3.05-.58-5.15-4.72-4.13-3.34.82-5.52-2.38-4.18-6.29.86-2.5.83-3.82-1.71-5.07-1.94-.96-2.02-2.87-.86-4.72,2.37-1.15,3.85.51,5.16,1.9,9.27,9.78,19.6,18.45,29.12,27.97,2.4,2.4,3.52,4.9,3.31,8.4-.38,6.3-.22,12.63-.06,18.94.05,2.18-1.26,5.42,2.66,5.85,4.05.44,8.25-2.43,8.6-5.81.29-2.81.2-5.65.08-8.47-.19-4.45,1.95-6.76,6.17-7.63,4.55-.94,9.15-1.76,13.46-3.63,2.76-1.2,3.91-2.73.88-4.9-9.06-6.49-16.67-14.77-26.03-20.89-.67-.55-1.14-1.24-1.47-2.04-1.15-2.33-1.09-4.84-1.09-7.33.02-9.96-.33-19.93,1.03-29.83q.64-5.18-6.52-5.05c-3.66-.07-7.34.19-10.98-.11-3.67-.3-5.04,1.11-5.23,4.7-.12,2.29-.64,4.59-.69,6.92-.03,1.79.43,4.11-1.41,4.99-1.96.94-3.22-1.15-4.55-2.31-10.65-9.31-20.48-19.47-30.49-29.44-1.18-1.17-2.4-2.31-3.53-3.52-2.24-2.41-4.13-2.59-6.61.01-19.26,20.22-40.94,37.9-60.69,57.63-8.93,8.93-19.28,16.31-28.85,24.55-.63.54-1.37.96-1.94,1.57-1.32,1.41-3.97,2.53-3.26,4.56.67,1.92,3.44,1.56,5.37,1.8,3.95.49,7.86,1.36,11.9,1.02,1.86-.15,4.31-1.31,5.37,1.11,1.06,2.42,1.44,5.14-.77,7.39-2.12-1.23-2.51-4.77-6.51-3.72-2.26.59-3.59.77-4.68,3.11-2.01,4.32-6.76,4.9-9.62,1-2.66-3.62-5.95-4.37-9.96-4.3-3.15.06-6.28.04-9.42-.66-5.47-1.21-10.25-2.67-10.39-9.73-.05-2.42-2.47-3.91-4.7-4.76-4.33-1.65-7.17-4.68-8.96-8.84.27-5.36,3.66-9.41,5.94-13.92,1.11-2.2,2.46-4.3,3.55-6.52Z"/>
  <path class="cls-8" d="M13.07,95.13c2.95,3.96,6.22,7.28,11.19,9,2.49.87,4.2,3.53,3.89,6.87-.3,3.28,1.35,4.38,4.76,5.41,5.57,1.68,11.05,1.44,16.62,1.79,2.88.18,5.91.52,6.95,4.32.58,2.11,2.64,2.9,4.85,2.54,2.48-.41,3.72-2,3.73-4.49.01-2.76.6-4.47,3.7-2.33.52.36,1.49.88,1.76.68,6.2-4.77,5,1.85,6.54,4.21,1.67,1.59,1.14,3.71,1.33,5.64.53,5.39,4.98,9.05,10.18,8.46,2.15-.24,2.22-1.75,2.19-3.24-.14-6.3.73-12.66-.56-18.9-1.29-6.23.72-10.63,5.61-14.77,9.63-8.14,18.74-16.9,28.09-25.37,8.12-7.36,16.16-14.81,23.83-22.66,3.85-3.94,5.33-3.85,8.95.18,5.57,6.2,12.43,11.03,18.08,17.13,1.43,1.54,3.44,2.75,3.4,5.26.09,1.14-.04,3.21.3,3.29,5.8,1.32,4.25,4.43,2.81,8.39-.75,2.06.23,5.34,4.14,2.84,2.15-1.37,5.81.67,5.35,3.26-.49,2.75.65,5.22.31,7.84-.32,2.46,0,4.65,2.82,5.63,1.37.48,2.13,1.56,2.13,3.07,0,7.24,1.65,14.39,1.09,21.68-.19,2.49-.71,4.11-3.57,4.36-2.71.24-3.05,1.33-1.62,3.9,2.45,4.4,1.21,8.12-3.21,10.48-1.77.94-3.45,1.82-4.94,3.2-1.29,1.2-2.9,2.04-4.62,3.22,1.31.89,3.07,1.44,3.26,2.33,1.66,7.68,5.06,2.31,7.77,1.07,1.02-.47,1.89-1.74,3.06-.91,1.57,1.11.22,2.36-.19,3.53-4.9,4.66-10.88,7.97-15.65,12.84-6.95,7.1-13.69,14.37-19.99,22.05-3.23,3.94-4.72,4.01-7.57-.1-2.28-3.3-5.57-5.68-7.71-9.06-4.61-6.75-11.08-11.65-17.21-16.79-4.36-3.65-8.9-7.41-14.65-9-14.38-7.65-30.11-11.78-45.28-17.35-1.86-.68-3.8-1.17-5.42-2.38-2.32-1.98-4.96-3.07-8.07-2.83-4.44-.59-8.83-1.42-13.02-3.08-7.06-3.21-14.8-3.15-22.55-4.75,2.06,3.23,2.67,6.17,1.15,9.79-1.88,4.46.3,9.13.57,13.71.62,10.55,2.45,21.05,1.42,31.68-.58,5.99,2.69,10.72,5.52,15.55.23.45.39.93.53,1.42.91,4.6,2.52,8.95,4.76,13.08,1.45,3.95,4.38,7.06,6.23,10.77,1.14,2.28,3.28,4.35,2.2,7.33-6.45,1-7.32.28-8.96-7.51-.6,5.42.02,10.26,5.02,13.48.97.62,1.97,1.7,3.11,1.16,1.73-.82.51-2.3.32-3.48-.19-1.14-.65-2.25.04-3.36,1.67-.94,2.52.36,3.24,1.37,4.92,6.94,10.32,13.46,16.17,19.62.78.83,1.51,1.84.81,3.13-3.79,1.02-6.83,3.81-10.74,4.57-6.58-2.35-9.31-8.69-13.61-13.36-4.37-4.74-7.12-10.74-11.09-15.83-11.53-19.33-17.28-40.56-20.59-62.59-1.11-.74-.91-1.9-.94-2.98,1.1-3.92.2-7.83.08-11.76-.25-8.09-.2-16.2.76-24.26,2.61-2.92,1.6-6.64,2.17-10.01,1.04-8.93,3.43-17.52,6.72-25.87.4-1.01.61-2.36,2.25-2.09Z"/>
  <path class="cls-17" d="M647.59,227.78c48.65,0,97.3.04,145.95-.02,24.81-.03,49.62-.29,74.43-.38,24.81-.09,49.61-.09,74.42-.15,2.94,0,5.83-.28,5.64,4.16-.14,3.48.18,6.25-4.93,6.66-19.64,1.61-39.29.74-58.93.85-20.15.12-40.3.1-60.45-.29-46.31-.91-92.6.74-138.92.05-30.79-.46-61.62,0-92.44.02-26.64.03-53.29.7-79.92.31-19.66-.29-39.29-.39-58.95-.17-33.63.38-67.26.1-100.89.33-5.25.04-4.76-2.93-5.05-6.42-.34-4.14,1.35-5.09,5.15-5.08,41.65.13,83.31.14,124.96.16,56.64.02,113.27,0,169.91,0v-.04Z"/>
  <path class="cls-29" d="M648.31,59.41c-64.31,0-128.63-.09-192.94.04-33.82.06-67.63.48-101.45.8-3.28.03-5.76.17-5.87-4.44-.12-4.74,2.24-4.96,5.86-4.96,89.15.1,178.29.17,267.44.16,86.48,0,172.96-.05,259.44-.17,20.45-.03,40.91-.49,61.36-.64,3.28-.02,6.88-.23,6.61,5.07-.19,3.73-2.01,4.17-5.12,4.31-17.99.84-35.97.07-53.95,0-52.64-.18-105.28-.1-157.91-.11-27.82,0-55.64,0-83.46,0,0-.02,0-.04,0-.07Z"/>
  <path class="cls-53" d="M413.95,90.1c1.15-1.5,2.77-.76,4.16-.78,15.14-.21,30.29-.27,45.43-.55,2.09-.04,2.77.74,2.78,2.47.03,4.83.08,9.64,1.57,14.32.26.82.62,2.14-.75,2.48-1.19.3-1.86-.76-2.16-1.65-1.49-4.33-4.62-4.84-8.72-4.58-6.14.4-12.32.32-18.47.14-3.23-.09-4.43.98-4.48,4.25-.15,9.31-.51,18.62-.94,27.93-.12,2.7,1.17,3.84,3.5,3.63,5.79-.52,12.32,3.26,17.22-3.04.95-1.22,2.91-.45,2.58,1.35-1.13,6.19-.04,12.42-.33,20-5.42-8.18-12.95-4.14-19.24-5.59-2.08-.48-2.94.96-2.93,2.99.04,9.98.05,19.96.06,29.94,0,3,1.55,3.99,4.45,3.91,6.99-.2,13.98-.24,20.98-.22,2.85,0,5.17-.93,7.15-2.94.69-.7,1.63-1.37,2.67-.91,1.34.6,1.06,1.87.96,3.04-.3,3.48-.76,6.96-.77,10.44,0,3.16-1.27,3.75-4.27,3.7-15.47-.24-30.95-.34-46.43-.18-3.63.04-4.03-1.78-2.61-3.8,3.61-5.13,2.8-10.79,2.8-16.38.04-25.3-.07-50.6.08-75.9.03-4.47-.42-8.52-3.52-11.94,2.47-1.24,5.14-1.09,7.78-1.1,11.48-.01,22.96,0,31.34,0-9.84.09-22.78-.17-35.72.12-1.55.03-2.98-.05-4.18-1.16Z"/>
  <path class="cls-26" d="M772.01,93.17c-4.5,4.52-4.36,10.66-5.14,16.25-1.12,7.92-2.81,15.64-4.69,23.41-4.59,19.03-8.54,38.21-12.75,57.33-.04.16-.03.34-.09.49-1.18,2.92,1.55,7.82-1.32,8.7-4.01,1.22-8.8-.02-13.24-.39-2.15-.18-2.3-1.92-2.42-3.71-.52-7.48-2.94-14.6-4.32-21.92-2.25-11.9-4.6-23.78-6.89-35.68-2.79-14.47-5.55-28.94-8.33-43.41,3.23-5.11,8.39-2.26,11.91-3.1-2.2-.02-5.17.24-8.08-.07-2.69-.29-3.43,1.11-3.81,3.23-1.04-1.55-4.29-2.08-3.38-4.2.85-2,3.61-.67,5.51-.75,4.49-.19,8.98-.16,13.47-.22,1.13-.01,2.43-.38,3.17.83.84,1.38-.34,2.17-1.15,2.9-2.13,1.92-1.42,4.24-1.03,6.51,2.95,17.14,6.01,34.27,8.83,51.44.93,5.64.21,11.55,2.62,16.82,1.17.38,1.57-.33,1.65-.88,2.92-19.16,8.27-37.87,10.78-57.11.36-2.77,1.23-5.5,2.05-8.19,1.03-3.37,1.09-6.51-1.44-9.28,6.15-1.72,12.29-3.21,18.11,1.02Z"/>
  <path class="cls-9" d="M340.89,103.04c.02-4.15.04-8.3.08-12.45.02-1.36.01-2.91,2.1-2.37,7.87,2.02,15.88.84,23.81.91,8.94.08,17.94,1.14,26.82-.78.99-.21,1.77.21,1.87,1.11.74,6.12,2.29,12.16,2.33,18.48-.91-.11-1.43-.05-1.51-.2-3.3-6.98-9.55-5.75-15.45-5.66-2.85.04-3.69,1.44-3.67,4.08.22,25.45.29,50.9.6,76.35.06,5.12-1.67,10.62,2.78,15.17,1.32,1.36-.03,2.83-2.04,2.55-5.48-.78-10.96-.31-16.43,0-3.45.19-3.44-1.7-1.99-3.62,2.42-3.19,2.53-6.76,2.53-10.42,0-26.12-.11-52.24,0-78.35.02-4.27-1.25-6.24-5.73-5.7-5.07.61-10.84-1.64-14.64,3.85-.41.6-1.16.82-1.68.14-.83-1.08-.46-2.17.22-3.2,3.75-2.23,7.69-3.5,12.17-3.48,2.27.01.97-1.83.55-2.98-1.68-4.6-1.3-5.27,3.51-5.31,9.66-.08,19.32-.03,28.97-.02,8.25,0,8.73.57,7.4,8.8.76-1.08.36-2.28.51-3.39.54-3.93-.72-5.66-5.11-5.51-13.14.46-26.29-.22-39.44.41-3.77.18-5.48,1.01-5.19,5.11.18,2.54.52,5.79-3.4,6.47Z"/>
  <path class="cls-19" d="M881.91,106.13c-4.31-5.66-10.46-3.87-16.09-3.84-2.17.01-2.3,2.02-2.3,3.76.08,28.28.15,56.55.23,84.83,0,2.01.14,4.01,1.96,5.4,1.01.77,1.63,1.76.86,3-.76,1.24-2,.78-3.14.76-5.15-.06-10.31-.2-15.46-.01-3.36.12-4.17-1.27-2.33-3.72,1.76-2.35,1.97-4.8,1.99-7.5.14-26.76.32-53.52.49-80.27.04-6.39.04-6.43-6.34-6.33-3.3.05-6.65-.4-9.86.76-.8-2.93,1.57-2.86,3.18-3.08,3.13-.41,6.3-.44,8.66.26-2.92-.6-6.54-1.47-10.32-1.3-2.22.1-3.44-1.03-3.6-3.22-.17-2.22.56-3.92,2.93-4.55,1.14-.3,2.3-.37,3.46-.38,12.47-.03,24.93-.04,37.4,0,3.35.01,6.53.39,6.52,4.9-.01,5.31-3.85,4.33-7.2,4.15,7.08.22,8.92,1.51,8.96,6.37Z"/>
  <path class="cls-4" d="M693.13,159.04c2.57,6.84,3.2,14.13,4.66,21.2,1.21,5.86,1.57,11.78,5.57,16.71,1.64,2.02.89,3.28-1.88,3.22-5.48-.13-10.96-.15-16.44-.17-2.23,0-4.22-.88-2.49-3.1,2.87-3.67,1.74-7.07.69-10.81-2.74-9.79-2.68-9.81-12.89-10.34-10.98-.57-10.87-.54-13.34,10.1-.88,3.8-1.94,7.31.68,10.92,1.39,1.91.2,3.12-1.98,3.18-5.31.15-10.63.25-15.94.34-2.26.04-2.73-1.49-1.76-2.93,6.17-9.19,5.56-20.3,8.83-30.29,1.94-2.21,1.63-4.91,1.63-7.53,0-2.91-.07-5.84,1.52-8.34,1.4.12,1.61.97,1.91,1.71.65,1.63.06,3.98,2.06,4.79,2.53,1.03,2.62-1.88,3.9-2.9,1.84-1.47,2.97-.46,3.09,1.25.27,3.91,2.83,3.86,5.61,3.73.33-.02.66,0,.99,0,12.44.05,13.14-.96,8.83-12.82-.21-.48-.36-.97-.47-1.48-.1-2.55-1.43-6.16,1.54-7.05,2.84-.85,2.01,3.58,3.99,5.12,2.5-1.34,2.65-3.94,3.36-6.23.34-1.1.64-2.42,2.11-2.42,1.75,0,1.2,1.56,1.57,2.57,2.57,6.98,1.78,14.68,4.65,21.58Z"/>
  <path class="cls-33" d="M806.97,144.65c0,14.98.04,29.96-.04,44.94-.01,2.52.83,4.52,2.5,6.28.9.94,2.3,1.78,1.61,3.31-.83,1.86-2.54.96-3.96.94-4.66-.06-9.33-.28-13.98-.06-3.31.16-4.27-1.15-2.52-3.67,2.8-4.01,2.77-8.37,2.76-12.9-.06-27.14-.07-54.28-.01-81.43,0-3.42-.28-6.56-2.72-9.28-2.2-2.44-1-3.46,1.85-3.46,5.16,0,10.33-.02,15.49-.04,2.97,0,3.75,1.18,1.81,3.57-2.49,3.06-2.79,6.59-2.77,10.34.08,13.81.03,27.63.03,41.45-.02,0-.03,0-.05,0Z"/>
  <path class="cls-31" d="M533.15,92.08c-14.94-3.81-30.12-1.02-45.33-2.09.14,2.71,2.68,3.32,3.2,5.22,1.01,2.24.44,4.59.44,6.88.03,25.76.05,51.52,0,77.28-.01,4.9,1.82,9.87-.45,14.7-1.08.57-2.05,1.29-1.77,2.67.32,1.59,1.72,1.29,2.83,1.31,1.99.05,3.99.14,5.97-.02,4.56-.36,6.08-2.63,5.11-7.07-2.36-10.83-.65-21.81-1.11-32.71-.03-.63.16-1.36.49-1.89,2.42-3.84,6.7-1.96,10.04-2.92,2.1-.6,3.47,1.71,4.71,4.04,1.86,3.48.53,8.11,4.26,10.79.84-3.87,3.23-6.62,6.88-7.66,2.61-.74.57,3.43,3.09,3.61,1.14-2.44.11-4.6-.82-6.87-.96-2.35-1.76-4.88,1.63-6.17-1.7,4.51.39,8.64,1.58,12.71,2.87,9.77,6.16,19.42,9.27,29.12-1.53.67-2.03-.6-2.67-1.48-1.06-1.44-.74-4.35-4.15-3.15-1.02.36-2.03-1.44-1.78-2.97.16-1,.8-1.8,1.18-2.71.85-2.07.57-4.59-1.24-5.24-2.34-.85-3.21,1.63-3.53,3.59-.63,3.82-1.81,5.07-4.78,1.5-.98-1.18-.57,1.03-1.33.78-2.51-8.39-7-16.05-8.86-24.68-1.36-6.32-6.3-2.27-9.52-2.77-2.93-.46-2.45,2.32-2.42,4.31.13,8.32.19,16.64.34,24.96.07,4.1-.46,8.25,2.86,11.74,1.76,1.85.03,3.16-1.91,3.12-5.82-.13-11.63-.19-17.46.07-2.72.12-2.44-2.04-1.15-3.37,3.04-3.13,2.78-6.91,2.78-10.75-.01-27.96-.02-55.93.05-83.89,0-3.57-.07-6.91-2.79-9.73-2.04-2.12-1.06-3.17,1.63-3.16,12.49.04,24.98.03,37.46.13,2.69.02,5.32.57,7.25,2.76Z"/>
  <path class="cls-13" d="M304.03,148.11c.37-19.76-4-38.4-12.53-56.24-5.6-11.71-11.92-22.94-20.3-32.82-13.81-16.29-29.49-30.33-48.72-40.28-15.51-8.03-31.69-13.4-48.96-15.61-.15-.02-.4-.08-.42-.16-.06-.27-.03-.56-.04-.85,19.58,1.32,37.72,7.57,54.43,17.45,28.54,16.87,50.43,40.09,64.9,70.16,9.23,19.18,13.3,39.36,13.81,60.51.42,17.36-1.12,34.39-6.03,51.11-4.14,14.13-10.4,27.23-18.25,39.62-1.07.07-1.39-.64-1.59-1.5-.06-2.14,1.21-3.76,2.22-5.44,12.29-20.25,18.93-42.19,20.25-65.85.32-5.79,1.23-11.53.4-17.34-.15-1.02.12-1.97.82-2.77Z"/>
  <path class="cls-44" d="M881.91,106.13c-.84-3.65-3.2-5.08-6.85-5.06-2.83,0-5.77.53-8.54-1.49,2.96-.38,5.96-1.23,8.87-.98,2.25.19,3.52.47,3.55-2.28.02-2.34,0-4.31-3.27-4.21-4.82.16-9.64.03-14.46.03-8.65,0-17.29,0-25.94,0-2.2,0-4.39-.3-4.36,3.11.03,3.89,2.46,1.85,4.1,1.92,4.25.16,8.22,1.39,12.04,3.94-3.71,0-7.41-.05-11.12.02-1.54.03-3.51-.62-3.99,1.82-.66.73-1.32,1.45-1.97,2.18-.79.89-2.6,1.75-2.2.07,1.34-5.53.03-11.1.96-16.57.11-.65.74-.46,1.2-.49,1.42.95,2.97,1.23,4.69,1.18,15.04-.43,30.11.58,45.14-.54,1.51-.11,2.13.22,2.32,1.67.62,4.75,1.35,9.48,1.9,14.23.16,1.33.19,3.19-2.05,1.43Z"/>
  <path class="cls-10" d="M524.88,183.34c.09-1.14.19-2.29.28-3.41,1.62-.04,1.62,1.11,1.93,2.01.34.99.88,2.01,2.07,1.63.94-.3.71-1.29.49-2.13-.97-3.7,2.63-4.51,4.25-6.56.6-.76,1.77-.57,1.88.46.35,3.09,4.44,6.11.2,9.36-1.14.87-.64,3,.24,2.74,5.25-1.51,4.16,4.4,6.96,5.58.7.69,1.52,1.3,2.06,2.1.8,1.18,2.41,2.26,1.73,3.86-.87,2.05-2.87.93-4.39.97-3.46.08-6.93-.02-10.39.01-2.09.02-3.57-.57-3.58-3-.04-4.87-2.57-9.06-3.73-13.63Z"/>
  <path class="cls-39" d="M567.44,93.3c4.73,2.04,4.43,6.49,4.46,10.35.16,22.32.03,44.64.13,66.96.02,3.55-1.65,7.85,3.3,9.93.81.34.71,2.06.19,2.14-5.77.92-2.03,6.83-5.14,9.57-2.12,1.86,2.24,2.9,3.27,4.64,1.64,2.76,5.76,1.06,8.8,1.03,2.44-.03,2.51-2.23,2.62-4.1.58.8,1.11,1.64,1.75,2.38.75.87,1.87,1.59,1.23,2.96-.66,1.4-1.96.86-3.08.86-5.49,0-10.99.03-16.48.05-.95,0-2.09.54-2.72-.54-.57-.98-.08-1.98.64-2.72,3.09-3.17,3.17-7.16,3.2-11.19.16-24.64.35-49.28.47-73.91.02-4.16-.33-8.31-.36-12.47-.01-2.33-1.1-4.13-2.29-5.95Z"/>
  <path class="cls-36" d="M140.18,310.91c-3.85-1.72-8.09-.87-12.09-1.85-12.54-3.07-24.82-6.78-36.11-13.24,2.13-1.46,4.2-.4,6.2.26,6.63,2.18,13.27,4.39,19.84,6.73,15.31,5.44,30.99,4.98,46.83,4.35,12.91-.51,25.4-2.9,37.71-6.56.96-.29,1.96-.37,2.95-.05.65.29.8.74.47,1.36-8.74,4.88-18.31,6.21-28.11,7.24-12.55,1.32-25.07,2.23-37.68,1.76Z"/>
  <path class="cls-30" d="M13.07,95.13c-5.1,8.63-6.87,18.21-7.99,27.97-1.17,3.23-.05,6.93-2.02,10-1.99,8.3-.77,16.71-.78,25.07,0,3.71.47,7.43-1.19,10.94-.08-7.43-1.46-14.8-.99-22.27,1.57-24.87,6.67-48.72,20.25-70.11.43-.67,1.15-1.15,1.74-1.72.01,3.93-2.79,6.64-4.51,9.73-1.86,3.35-3.28,6.81-4.51,10.39Z"/>
  <path class="cls-6" d="M87.05,16.09c1.01,2.08-1.03,2.06-1.93,2.5-16.97,8.28-30.76,20.64-43.8,33.95-3.12,3.18-5.64,6.93-8.66,10.22-1.27,1.38-1.84,4.05-4.67,3.38,15.5-20.07,33.75-37,56.3-48.99.86-.46,1.84-.7,2.77-1.05Z"/>
  <path class="cls-35" d="M413.95,90.1h50.35c-1.4,2.51-3.24,1.98-4.91,2.02-14.25.39-28.52-.74-42.75.62-.62.06-1.27-.32-1.91-.5-.86-.49-2.13-.84-.79-2.14Z"/>
  <path class="cls-39" d="M621.97,136.12c0-8.43.06-16.85-.03-25.28-.05-4.76-.52-9.39-6.31-10.93-.58-.16-1.46-.76-1.48-1.21-.31-5.18-5.43-5.82-8.11-8.74,7.76,1.01,17.08,10.77,17.62,18.54.55,7.88.19,15.83.1,23.75-.01,1.42-.3,2.99-1.78,3.86Z"/>
  <path class="cls-25" d="M2.03,172.1c2.08,3.29,1.76,7.15,2.46,10.75,3.21,16.71,8.42,32.69,16.76,47.59.8,1.42,1.25,3.04,1.86,4.57.29.24.39.47.29.7-.1.23-.2.34-.3.34-12.9-19.38-18.8-41.07-21.06-63.95Z"/>
  <path class="cls-37" d="M281.03,240.05c.3.32.6.64.9.96-9.96,15.34-22.2,28.53-36.84,39.51-.93.7-1.75,1.51-3.01,1.52-.4.4-.79.4-1.2,0-.22-2.29,1.69-3.09,3.07-4.15,12.89-9.85,24.1-21.28,33.05-34.87.92-1.4,1.6-3.47,4.03-2.99Z"/>
  <path class="cls-42" d="M23.09,236.05c0-.35,0-.69.01-1.04,4.33,3.12,5.69,8.43,9.07,12.27,4.78,5.42,8.36,11.95,14.83,15.79,4.41,2.65,8.1,6.02,10.6,10.59,0,.49-.17.91-.51,1.25-13.75-10.84-25.61-23.33-34-38.85Z"/>
  <path class="cls-27" d="M241.01,282.02c.35,0,.71.01,1.06.02-7.45,6.94-16.25,11.75-25.43,15.92-3.44,1.57-7.11,2.65-10.67,3.95.03-.28.05-.56.07-.85-.23-2.51,1.93-2.91,3.45-3.48,9.46-3.59,18.33-8.23,26.51-14.21,1.42-1.04,3.02-2.12,5.02-1.35Z"/>
  <path class="cls-11" d="M772.01,93.17c-5.93-2.19-12.09-.29-18.11-1.02-1.93-1.46-1.38-2.69.68-2.77,6.06-.23,12.14-.15,18.21-.18.88,0,1.78.29,1.73,1.28-.07,1.49-1.32,2.12-2.52,2.69Z"/>
  <path class="cls-40" d="M132.05,2.11c.53,1.57-.8,1.03-1.38,1.13-12.46,2.08-24.46,5.66-36.11,10.57-1.24.52-2.85,2.19-4.47.38,11.7-4.87,23.45-9.58,36.07-11.54,1.94-.3,3.92-.36,5.88-.54Z"/>
  <path class="cls-28" d="M57.08,274.91c0-.33.01-.65.03-.98,2.27-1.24,3.81.48,5.31,1.55,7.39,5.28,14.93,10.31,22.84,14.79,1.69.96,4.22,1.79,2.76,4.75-1.98-1-3.96-2.01-5.93-3.01-8.73-5.12-16.94-11.02-25-17.11Z"/>
  <path class="cls-39" d="M606.13,90.02c-11.57.04-23.14.07-34.71.14-1.88.01-4.19-.61-4.58,2.37-1.58-1.36-3.13-3.19.48-3.23,12.49-.17,24.98.02,37.47.11.45,0,.89.4,1.34.61Z"/>
  <path class="cls-19" d="M829.9,88.15c-2.12,5.61-.17,11.54-1.37,17.21.47-.07.94-.15,1.41-.22.13,1.34-.72,1.8-1.8,1.76-.72-.02-1.19-.71-1.07-1.42.95-5.6.85-11.24.87-16.88,0-.97.94-1.83,1.96-.45Z"/>
  <path class="cls-34" d="M143.08,187.08c3,3.25,6.48,6.11,8.71,9.98,1.54,2.67,2.26,1.69,3.74-.09,6.74-8.12,13.68-16.05,21.32-23.35,4.85-4.63,10.08-8.73,16.19-11.6,11.6-4.88,22.52-11.4,34.76-14.66,19.83-5.29,39.3-11.91,59.11-16.13v32.87c.84.7,1.08,1.63,1.07,2.67-.19,33.93-11.57,63.99-34.51,88.55-21.02,22.5-47.62,35.83-78.76,39.25-12.14,1.34-24.27.44-36.4.76-1.68.04-3.32-.24-4.84-1.03-5.71-2.07-11.64-3.18-17.65-3.9-4-.78-8.44-.34-11.33-4.15.15-4.44,3.29-3.49,5.74-2.86,4.99,1.28,9.98,2.47,15.11,2.96.99.09,1.99.33,2.97.23,2.15-.21,5.35.92,5.74-2.27.42-3.38-2.99-2.89-5.06-3.33-4.87-1.03-9.91-.49-14.83-1.47-3.63-.72-5.87-2.84-7.73-5.7-.88-1.35-.33-2.15,1.1-2.52,6.6.67,12.57,3.94,19.17,4.65,1.15.12,2.26.47,3.41.59,4.33.45,4.81-.15,3.1-3.97-.47-1.06-1.04-2.07-.88-3.29,3.12-2.74,6.98-4.07,10.9-4.32,4.77-.31,8.65-1.72,11.39-5.67,1.06-1.53,2.84-1.49,4.19-2.34,4.08-5.35,9.13-9.82,13.56-14.86,6.07-4.46,10.56-10.55,15.89-15.76,12.13-11.86,24.9-23.05,36.64-35.31,5.78-6.04,12.39-11.07,19.26-15.8,1.44-.76,2.92-1.27,4.58-.98,5.66,3.55,3.53,8.61,2.61,13.43-.69,1.93-2.01,3.44-3.49,4.79-12.43,11.29-25.2,22.21-37.37,33.77-12.78,12.14-24.67,25.17-35.25,39.33-2.65,3.54-6.06,6.51-8.5,11.13,7.87.07,15.14-.62,22.08-2.74,13.71-4.19,27.15-8.98,38.49-18.35,14.24-11.77,25.44-25.69,32.37-42.94,4.17-10.4,7.28-21.06,8.57-32.21.9-6.45.32-12.93.26-19.39-.03-2.86-1.59-4.22-4.55-3.78-2.13.32-4.33,0-6.42.67-2.47.52-4.94,1.05-7.3,1.98-13.48,3.09-26.6,7.32-39.35,12.64-13.07,5.46-24.12,13.8-33.91,24-5.25,5.48-9.23,11.7-12.49,18.46-4.33,1.39-4.16-2.07-4.37-4.44-.22-2.44.14-4.92-1.6-7.37-4.29,3.02-9.61,4.57-12.9,9.15-.71.71-1.51,1.22-2.56,1.23-3.34-1.34-4.66-4.6-6.44-7.24-5.32-7.86-11.56-14.81-18.89-20.8-1.17-.95-2.22-1.99-2.4-3.61.57-3.55,2.98-3.1,5.22-2.11,3.36,1.47,6.18,3.58,8.31,6.8,4.08,6.16,6.53,6.22,11.69.85.76-.79,1.54-1.25,2.54-.4Z"/>
  <path class="cls-3" d="M178.17,74.85c-8.04-7.91-16.12-15.8-24.11-23.77-1.69-1.69-2.65-1.09-4.03.36-17.05,18.01-35.98,34.02-54.29,50.69-3.53,3.21-5.06,6.19-4.48,11.13.9,7.73.69,15.58,1.06,23.38.12,2.52-1.05,2.8-3.05,2.23-3.04-.86-6.07-1.76-9.14-2.49-2.16-.51-2.32-2.16-2.46-3.82-.26-3.14-.42-6.29-.62-9.44.08-1.32.11-2.65.26-3.97.33-3.04-.43-3.75-3.8-3.14-6.47,1.17-12.85-1.06-19.26-1.89-2.32-.3-2.01-2.11-1.08-3.36,1.27-1.71,2.85-3.25,4.5-4.62,13.05-10.83,26.25-21.46,38.36-33.42,16.45-16.24,34.26-31.06,50.43-47.61,6.49-6.64,6.57-6.61,13.24.03,11.4,11.33,22.28,23.19,35.21,33.49.36-4.95.83-9.52.97-14.1.08-2.65,1.19-3.39,3.68-3.32,4.48.13,8.98,0,13.46-.01-.85,3.37-3.7,2.15-5.69,2.2-10.33.24-8.11-.88-9.84,9.23-.89,5.17.85,9.78,5.06,12.72,4.02,2.81,7.57,6.44,12.49,7.93,3.49,1.05,4.05,3.83,3.97,7.11-.12,4.42.16,4.68,3.01,5.78,5.56,2.2,8.96,7.21,13.67,10.54,5.01,3.55,9.59,7.71,14.5,11.41,2.69,2.03,2.2,2.93-.58,4.28-5.46,2.65-11.14,4.52-17.13,5.09-3.2.3-4.41,1.61-4.37,4.67.04,3.33-.3,6.66-.17,9.98.15,3.61-1.32,5.38-4.87,6.25-8.99,2.2-8.95,2.33-9.24-6.95-.21-6.66-.3-13.32.55-19.94.2-1.6.02-2.82-1.25-4.02-11.25-10.62-22.44-21.31-33.67-31.96-.34-.32-.87-.46-1.31-.68Z"/>
  <path class="cls-52" d="M134.01,293.21c10.89,2.25,21.91,1.41,32.8.62,43.34-3.14,77.7-22.28,100.65-59.52,11.71-19.01,19.04-39.9,18.9-62.77-.02-2.48.37-4.96.56-7.44,2.17-.85,2.13-2.7,2.12-4.57-.01-1.48-.29-3.33,1.42-3.9,2.43-.81,2.15,1.91,3.18,2.95,3.6-2.99,3.63-3.04-.29-5.33-3.55-2.08-2.92-5.19-1.31-7.7,1.78-2.77,4.36-1.66,6.23.37,1.62,1.75,3.46,2.45,5.76,2.18,2.12,18.35-.83,36.13-5.76,53.76-3.55,12.69-9.15,24.38-16.07,35.5-.51.82-.79,1.78-1.18,2.67-3.79,3.08-5.79,7.57-8.61,11.37-8.56,11.56-19.15,20.87-30.52,29.43-.38.28-.59.78-.89,1.18-11.04,7.47-22.93,13.39-34.97,19.04-18.09,6.21-36.8,7.71-55.79,8.01-15.75.25-30.48-3.59-45.03-8.96-4.35-1.6-8.82-2.87-13.24-4.29-1.12-1.26-2.62-.63-3.96-.8.13-2.09-1.47-2.77-2.93-3.55-8.15-4.37-15.84-9.46-23.27-14.96-1.41-1.04-2.74-2.47-4.71-2.58-3.37-3.62-6.74-7.24-10.11-10.86,3.93-.91,6.62-5.21,11.28-4.1,2.44-.25,3.98,1.42,5.62,2.75,11.54,9.38,24.18,16.87,37.96,22.45,1.2.49,2.61.73,3.06,2.25,3.44,1.35,6.84,2.88,10.66,2.74,6.1,1.55,12.29,2.67,18.42,4.05Z"/>
  <path class="cls-54" d="M222.05,86.16c.57,1.44.38,2.52-1.4,1.66-3.07-1.5-3.12-4.5-2.78-7.29.47-3.79-.84-5.23-4.63-6.63-5.08-1.89-9.49-5.53-13.47-9.45-4.51-4.45-4.22-9.69-2.93-15.21.26-1.11.29-2.32.19-3.46-.26-2.95,1.24-3.51,3.87-3.65,4.05-.21,8.24,1.11,12.14-.92,1.31-.1,2.61-.24,3.92-.31q5.63-.27,4,5.3c-2.27,11.51-1.18,23.15-1.46,34.74-.04,1.62.69,2.87,1.35,4.2.4.34.8.69,1.19,1.03Z"/>
  <path class="cls-3" d="M220.85,85.12c-1.28-.71-1.85-1.83-1.81-3.26.3-11.49-.9-23.03,1.14-34.46.08-.44.51-.81.78-1.22-.75,10.85-1.31,21.71-.78,32.58.1,2.12.44,4.24.66,6.35Z"/>
  <path class="cls-14" d="M104.92,286.42c-15.79-5.12-29.54-13.81-42.35-24.15-1.4-1.13-2.86-2.2-4.29-3.3-7.29-7.55-14.07-15.53-20.04-24.17l.05.1c-3.07-5.94-6.14-11.89-9.21-17.83-1.92-4.38-3.6-8.84-4.86-13.46l.12-.31-.25-.22c-1.22-3.23-3.77-6.07-2.94-9.92.72-2.6.79-5.2.12-7.83-.67-2.6-.64-5.26-.44-7.9.41-5.48,3.14-7.38,8.19-5.44,3.09,1.19,4.73.8,4.96-2.76.07-.98.44-1.95,1.55-2.34,2.37,1.32,1.9,3.67,1.97,5.75.12,3.47-.33,6.96.34,10.41,3.18,22.92,12.77,42.89,28.47,59.76,9.24,9.93,20.25,17.65,32.76,23.17,3.31,1.46,7.51,1.88,9.14,6.01-.82,2.13,2.06,5.64,5.14,6.01,6.22.75,12.45,1.52,18.7,1.97,3.02.22,4.08,1.47,4.03,4.35-.05,3.26-1.97,3.73-4.62,3.73-7.21,0-14.24-.96-21.08-3.31-2.18-.75-4.6-1.95-5.47,1.69Z"/>
  <path class="cls-43" d="M35.14,166.99c-.02.66-.05,1.33-.06,1.99-.07,6.83-.67,7.19-6.93,4.14-3.55-1.73-5.82-.53-6,3.51-.13,2.94-.3,5.9.5,8.89.66,2.46,1.28,5.18-.59,7.57-2.73-1.49-2.3-4.12-2.4-6.57-.11-9.59-.96-19.14-1.65-28.7-.58-8.12-.1-16.19.15-24.28.54-1.86,2.09-2.24,3.56-1.83,5.68,1.56,11.75,1.32,17.24,3.75,4.21,1.04,8.28,2.65,12.69,2.78,3.03.33,5.71,1.66,8.38,3.01,10.87,3.81,21.7,7.77,32.64,11.36,6.49,2.13,12.42,5.32,18.39,8.48,1.2,2.54-.88,2.99-2.38,3.17-4.55.54-8.37,1.82-9.61,6.92-.14.58-1.07.71-1.72.86-6.02-.54-11.42-3.22-16.95-5.28-12.81-4.77-26.08-7.33-39.55-9.09-1.53-.2-3.42-.78-4.1,1.54-.67,2.57.45,5.51-1.62,7.78Z"/>
  <path class="cls-20" d="M96.95,171.15c.57-.28,1.64-.59,1.63-.85-.31-7.23,5.26-6.5,9.7-7.17,1.41-.21,2.64-.3,2.79-2.05,4.92.86,8.46,4.26,12.2,7.05,7.34,5.5,14.43,11.36,19.82,18.95-2.73-.03-1.68,2.8-3.02,3.97-3.86,3.34-9.25,2.29-11.97-3.28-1.9-3.88-5.38-5.23-8.5-7.23-1.58-1.01-3.27-.64-3.59,1.74-5.69-.63-9.36-5.32-14.46-7.21-1.83-.68-4.32-1.16-4.58-3.92Z"/>
  <path class="cls-41" d="M149.34,110.13q-.12,11.7-12.02,11.47-7.58-.14-7.56-7.6c0-1.83,0-3.65-.06-5.48q-.27-8.9,8.42-9c.17,0,.33,0,.5,0q10.83-.15,10.72,10.6Z"/>
  <path class="cls-1" d="M139.7,150.8q-10.13,0-10.21-10.26-.08-10,9.96-10t9.89,10c0,.17,0,.33,0,.5q-.03,9.78-9.64,9.77Z"/>
  <path class="cls-15" d="M170.6,130.2c2.01.64,4.03.37,6.05.04,1.3.69,1.04,1.85,1.03,3.02-.04,4.77-.63,9.55.68,14.3.72,2.61-.64,4.33-3.44,3.97-4.62-.59-9.25-.37-13.87-.44-2.45-.04-3.54-1-3.53-3.59.02-3.29.51-6.61-.37-9.87.06-1.75.29-3.52.15-5.26-.16-1.96,1.23-1.83,2.37-2.14,3.64.64,7.29.67,10.92-.03Z"/>
  <path class="cls-45" d="M38.97,135.45c-5.64-1.02-11.28-2.06-16.93-3.05-1.03-.18-2.23-.97-3.05.46-.94,8.88-.74,17.82-.26,26.67.51,9.31.9,18.68,2.24,27.94-.24,1.99-.45,3.97,1.1,5.61-.28,3.53,1.96,6.54,2.03,9.99-4.66-5.43-6.58-11.34-6.26-18.84.5-11.53-.33-23.15-2.34-34.62-.58-3.31-1.13-6.65.91-10.07,1.48-2.48.95-5.42-2.25-7.06-.78-.4-1.87-1.14-1.26-2.34.53-1.04,1.64-1.19,2.6-.72,5.79,2.77,12.25,2.15,18.28,3.69,1.88.48,4,.37,5.2,2.33Z"/>
  <path class="cls-45" d="M157.23,110.52c0-3.31-1.02-7.1.26-9.82,1.63-3.47,5.99-.84,9.03-1.67,1.12-.31,2.24-.79,3.37-.81,7.19-.12,10.86-1.44,8.43,8.4-.88,3.58-.82,7.63.25,11.34.75,2.58-.2,3.65-2.53,4.34-5.39,1.59-10.87.64-16.31.69-2.08.02-2.66-1.66-2.66-3.51,0-2.99,0-5.97,0-8.96.05,0,.11,0,.16,0Z"/>
  <path class="cls-52" d="M38.24,234.8c.38,1.6.69,3.22,1.17,4.79.44,1.43,1.33,2.99-.22,4.07-1.39.97-3.02.2-4.18-.7-3.78-2.94-7.82-5.69-7.01-11.59.3-2.16-.39-4.46-.65-6.84,2.47.01,4.39,1.76,4,3.12-1.99,6.84,3.27,6.18,6.94,7.24,0,0-.05-.1-.05-.1Z"/>
  <path class="cls-45" d="M157.15,137.63c.18.97.45,1.93.52,2.9q.71,9.92,10.97,9.99c8.79.05,8.9.05,8.63-8.5-.12-3.92.98-7.93-.62-11.78,1.85.38,2.18,1.35,1.86,3.23-.72,4.23-.74,8.47.34,12.73.95,3.73.35,6.45-4.72,5.99-4.26-.39-8.59-.15-12.88-.06-2.89.06-4.31-1.11-4.21-4.1.11-3.47.09-6.94.13-10.4Z"/>
  <path class="cls-45" d="M24.22,203.61c2.01,4.34,3.98,8.7,4.86,13.46-3.04-3.97-4.53-8.51-4.86-13.46Z"/>
  <path class="cls-45" d="M3.05,133.1c.03-3.46.54-6.83,2.02-10-.74,3.32,1.87,7.32-2.02,10Z"/>
  <path class="cls-45" d="M60.03,141.25c-3.02-.37-5.65-1.82-8.38-3.01,3.31-.44,6.11.55,8.38,3.01Z"/>
  <path class="cls-45" d="M170.6,130.2c-3.64.85-7.28.83-10.92.03,3.64,0,7.28-.02,10.92-.03Z"/>
  <path class="cls-7" d="M624.64,193.75c-.6-1.18-.88-2.53-1.48-3.7-2.3-4.46-2.78-9.49-4.56-14.16-2.83-7.41-4.55-15.24-6.7-22.89-.43-1.53-.14-2.86,1.07-4.09,3.7-3.75,6.19-8.38,9-12.78,1.94-9.69.92-19.44.6-29.17-.03-.81-.34-1.59-.8-2.32-3.98-6.25-8.82-11.57-15.73-14.67l.1.05c-12.27-.84-24.56-.14-36.83-.36-1.96-.03-3.43.39-2.45,2.87.2.26.4.51.59.77,3.41,2.65,3.54,6.42,3.54,10.25,0,22.95,0,45.9,0,68.84,0,1.5-.5,3.25.14,4.44,2.71,5-.02,9.39-1.23,13.93-1.05,3.95,1.3,7.73,5.5,8.23,1.98.24,3.99.12,5.98.04,3.47-.14,4.86-1.79,3.69-5.22-1.14-11.78-.51-23.61-1.01-35.41-.14-3.33,2.06-4.35,4.36-4.07,3,.37,7.28-3.31,8.92,2.13,3.44,11.44,6.55,22.98,10.18,34.36.97,3.04-2.71,7.25,1.55,8.87,2.92,1.11,6.57.27,9.9.3.5,0,1,.01,1.5.02q7.46.11,4.19-6.26ZM607.65,131.29c-.24,5.97-3.24,8.63-9.13,8.93q-13.99.71-14.18-13.36c-.03-1.99,0-3.98,0-5.97.14,0,.28,0,.41,0,0-4.97.08-9.95-.03-14.92-.06-2.8,1.16-4.01,3.87-3.79,4.86.39,9.88-1.06,14.48,2.08,2.71,1.84,4.52,3.87,4.57,7.13.09,6.63.28,13.28,0,19.9Z"/>
  <g>
    <path class="cls-48" d="M921.41,120.91c-.03.09-.06.18-.09.27.06,0,.1-.02.16-.02.02,0,.04,0,.06,0-.04-.08-.09-.16-.14-.25Z"/>
    <path class="cls-48" d="M954.04,196.39c-2.45-1.91-3.05-4.77-3.66-7.47-1.88-8.26-3.76-16.53-5.19-24.87-3.72-21.74-7.76-43.41-13.02-64.83-.35-1.43-.76-3.02-.47-4.4,1.13-5.57,1.23-5.55-4.95-5.56-1.83,0-3.66,0-5.49,0,0-.03,0-.06,0-.09-3.5,0-6.99-.02-10.49.01-1.11.01-2.51-.38-3.01,1.07-.38,1.1.58,1.82,1.26,2.53,1.27,1.33,3.07,2.75,2.3,4.66-2.92,7.23-2.26,15.11-4.24,22.41-4.19,15.41-4.84,31.5-9.24,46.82-2.91,10.11-2.77,21.17-9.23,30.23-1.52,2.14-.68,3.42,2.02,3.31,3.99-.16,7.98-.41,11.97-.41,6.1-.01,6.07.07,4.6-5.53-.25-.94-.31-2-.18-2.97.64-4.76,1.4-9.51,2.07-14.27.3-2.17,1.75-2.6,3.59-2.57,5.15.08,10.31.14,15.46.25,1.65.04,4.04-.12,4.29,1.71.93,6.7,5.24,13.2,1.3,20.25-1.43,2.56-.37,3.62,2.47,3.54,5.32-.15,10.65-.14,15.97-.18.98,0,2.07.19,2.59-.95.47-1.04.1-2.05-.71-2.68ZM926.91,160.11c-.81.09-1.62.24-2.44.26-12.25.3-12.42.08-9.38-11.95.2-.79.5-1.56.75-2.34,1.79-8.22,1.31-16.78,3.79-24.89.42-1.38.13-3.65,1.82-3.67,1.93-.03,2.16,2.24,2.4,3.83,1.11,7.35,2.07,14.73,3.21,22.07.66,4.23,2.21,8.33,2.01,12.69-.08,1.63.87,3.92-2.16,4Z"/>
  </g>
  <path class="cls-49" d="M931.97,90.59c-7.36,1.93-14.74,1.8-22.13,0h22.13Z"/>
  <path class="cls-18" d="M712.83,94.3c.63-1.46-1.14-2.29-.99-3.85h18.16c-5.39,2.94-12.01-.04-17.19,3.79,0,0,.02.06.02.06Z"/>
  <path class="cls-10" d="M543.11,104.64c-1.1-5.7-4.3-10.23-9.96-12.56-4.62-2.05-9.44-2.66-14.48-2.48-5.96.22-11.93,0-17.89.07-4.59.06-9.2-.32-13.81.24.06,2.74,2.69,3.63,3.18,5.76,1.77,8.86.79,17.79.63,26.69-.3,17.22.06,34.44-.03,51.66-.03,6.21,2.21,12.46-.17,18.66-.98,1.48-2.81,2.74-1.92,4.8.93,2.15,3.1,1.5,4.84,1.57,1.99.08,4.03.3,5.97-.13,2.92-.65,5.81-2.04,4.88-5.62-2.52-9.68-1-19.49-1.31-29.23-.26-8.08-.02-7.95,7.72-9.47,3.13-.61,4.76.47,5.68,3.22.78,2.35,1.71,4.65,2.09,7.13.26,1.73,1.37,3.5,2.75,3.9,1.62.47,1.99-1.83,2.92-2.91,1.25-1.46,2.4-3.86,4.71-2.16,4.53,3.33,3.51-.2,3.56-2.62.04-1.73-.63-3.23-1.33-4.74-.94-2.04-.86-3.84,1.18-5.21,2.49-2.6,4.97-5.21,7.47-7.8,1.65-1.72,2.82-3.67,3.07-6.09,1.14-10.89,2.34-21.81.24-32.67ZM529.96,128.21c-.23,8.75-3.26,11.93-11.89,12.53-1.8.13-3.64-.22-5.46-.28q-8.57-.3-8.51-9.11c.02-3.33,0-6.65,0-9.98,0-5.15.11-10.31-.04-15.46-.08-2.74.75-4.01,3.66-3.87,4.15.19,8.32.03,12.48.21,5.25.24,9.68,4.68,9.82,10,.15,5.32.07,10.65-.06,15.96Z"/>
  <path class="cls-21" d="M491,194.08c0-32.96.01-65.91.02-98.87,1.31,1.06,1.4,2.57,1.35,4.05-.86,26.54-.12,53.09-.36,79.63-.03,3.81,1.53,7.47,1,11.34-.22,1.56.47,3.5-2,3.86Z"/>
  <path class="cls-51" d="M340.89,103.04c3.37-2.68,2.29-6.44,1.88-9.71-.33-2.57.11-3.22,2.57-3.21,15.46.06,30.93.08,46.39,0,2.79-.01,3.31,1.35,3.3,3.7-.02,3.12-.37,6.27.83,9.86-1.99-1.25-3.55-2.23-5.33-3.35,2.71-1.72,3.22-4.35,2.13-6.91-.98-2.31-3.53-1.22-5.37-1.24-9.98-.1-19.95-.07-29.93-.02-1.25,0-2.9-.64-3.68.7-.83,1.44,1.09,2.2,1.43,3.43.43,1.55,3.14,2.27,2.2,4.04-.86,1.62-3.04.68-4.61.74-3.77.13-7.64-.62-10.47,3.1-.73.96-1.07-.57-1.32-1.24,0,0-.02.11-.02.11Z"/>
  <path class="cls-24" d="M693.13,159.04c-2.38-13.88-5.01-27.73-7.03-41.66-1.23-8.5-4.08-16.78-3.74-25.5.09-2.41-1.24-2.72-3.13-2.7-6.82.06-13.64.06-20.45.1-.95,0-2.14-.31-2.68.77-.6,1.19.49,1.71,1.23,2.33,1.85,1.56,2.33,3.69,1.94,5.88-.76,4.24-.93,8.55-2.09,12.77-2.02,7.33-3.9,14.73-5.22,22.21-1.98,11.23-3.43,22.55-5.11,33.83,2.5-.92,2.13-3.08,2.14-5.04,0-3.36-.17-6.74,1.72-10.16.85,3.06-1.29,7.05,3.38,8.11,4.3.97,3.25-3.63,5.11-5.28,1.87,2.06-1.15,6.52,3.78,6.44,4.49-.07,8.98-.02,13.47-.02,1.9,0,3.58-.78,3.39-2.78-.4-4.17.18-8.64-2.91-12.19v-7.43c2.41.88,1.87,2.38,2.03,3.61.18,1.37-.53,3.18,1.61,3.64,1.94.42,2.38-1.39,3.41-2.36,2.28-2.15,1.45-5.47,3.24-9.39.75,5.61,3.06,9.35,2.72,13.73-.31,4.08,1.28,7.64,3.18,11.09ZM676.93,146.15s0-.02,0-.02c.54,3.26,1.07,6.52,1.62,9.78.48,2.84-.31,4.51-3.58,4.38-3.32-.13-6.66-.14-9.98,0-4,.16-4.55-2.1-3.62-5.14,3.81-12.46,4.69-25.39,6.44-38.19.21-1.53-.54-4.13,1.4-4.27,2.17-.16,2.38,2.5,2.52,4.21.83,9.92,3.87,19.43,5.19,29.25Z"/>
  <path class="cls-50" d="M269.14,181.18c-2.52,21.23-9.83,40.54-23.17,57.38-8.44,10.65-18.15,20.02-30.32,26.26-15.04,7.71-30.86,13.11-48.05,13.27-1.08.01-2.46.54-3.07-.89-.38-.9.47-1.48.98-2.11,13.69-16.7,27.09-33.69,42.85-48.54,12.21-11.51,24.88-22.52,37.31-33.78,1.59-1.44,3-3.1,4.5-4.65,1.01-1.54,1.36-3.31,1.89-5.05,1.98-6.5,6.04-11.28,12.28-14.02,3.81-1.67,5.16-.79,5.14,3.3,0,2.94.43,5.91-.34,8.82Z"/>
  <path class="cls-16" d="M108.21,271.99c-6.67-4.37-14.42-6.63-21.18-10.9-22.95-14.49-38.65-34.43-46.4-60.52-1.6-5.4-3.67-10.68-3.6-16.44-.91-2.06-.38-4.23-.4-6.34-.04-4.61,1.66-5.74,6.13-4.17,5.63,1.98,8.64,6.95,12.47,10.98,4.1,3.46,6.51,8.39,10.5,11.98,10.64,9.55,20.86,19.57,31.24,29.4,13.18,12.49,24.7,26.52,35.29,41.28.39.62.43,1.36.64,2.04.56,1,1.17,1.97,1.65,3.01.75,1.59,2.92,3.28,2,4.73-1.19,1.88-3.92,1.17-5.9.86-7.67-1.18-15.22-2.94-22.44-5.9Z"/>
  <path class="cls-23" d="M96.95,171.15c6.38,3.65,13.03,6.84,19.04,11.13,10.79,8.71,19.2,19.48,26.88,30.89,3.07,1.73,4.74,4.5,4.15,7.86-2,11.45-2.19,23.08-3.74,34.57-.11.83-.43,1.6-.97,2.25-3.99.77-4.56-2.73-6.18-4.93-5.03-8.94-12.37-16.09-19.17-23.52-16.39-17.92-34.34-34.31-52.43-50.5-4.94-4.42-10.33-8.39-15.87-12.09-2.15-2.12-5.25-2.83-7.38-4.97-1.44-2.21-4.36-2.05-6.09-3.8.08-3.25,2.56-2.04,4.01-1.88,13.15,1.47,26.13,3.73,38.64,8.26,6.35,2.3,12.74,4.48,19.12,6.71Z"/>
  <path class="cls-46" d="M244.11,176.27c-19.53,15.06-35.96,33.46-54.07,50.05-5.87,5.38-10.64,11.84-17,16.69-3.77-.92-7.63-1.43-11.26-2.89q-1.02,4.3-3.41,4.31c-.95-10.32-.17-20.32,5.55-29.38,2.23-8.69,8.06-15.03,14.02-21.21,11.27-11.69,24.64-20.25,40.02-25.45,10.52-3.56,20.84-7.85,31.97-9.35.59-.32,1.25-.62,1.77-.03.78.9.01,1.75-.64,1.87-7.25,1.28-6.81,5.81-5.01,11.18.57,1.7-.66,3.1-1.94,4.22Z"/>
  <path class="cls-20" d="M163.92,215.05c-3.02,9.78-5.12,19.7-4.92,30.01,1.98,2.39.12,5.01.43,7.5.22,1.75-.23,3.57.55,5.27-2.38,1.01-4.48,2-6.14,4.44-1.32,1.94-4.02,4.01-6.79,3.65-5.25-.69-9.34,2.71-14.15,3.38-.31-.35-.61-.69-.92-1.04-1.84-4.69-4.64-9.33-.66-14.28,1.5-1.86,3.07-3.59,5.76-1.93,1.33,1.97,2.67,3.94,4,5.9.47.33,1.18.24,1.2-.19.19-3.7.36-7.06,4.89-8.63,1.85-.64-.18-2.22-1.04-2.95-2.43-2.06-2.51-4.22-1.28-7.08,3.82-8.93,5.44-17.98.21-27.03,1.16-4.55,5.4-5.58,8.82-7.23,1.73-.83,2.93-4.07,5.16-2.41,2.28,1.7,3.13,4.33,2.16,7.54-.6,1.99-.05,4.38,2.71,5.08Z"/>
  <path class="cls-12" d="M269.14,181.18c-.04-2.63-.24-5.27-.08-7.89.29-4.54-1.52-4.5-4.93-2.82-5.85,2.9-8.97,7.94-11.54,13.54-.67,1.45-.68,3.29-2.43,4.11.81-3.01,1.19-6.07.8-9.17-.23-1.82-.71-3.57-2.94-3.97-.39-2.38,1.5-3.1,3.01-4.02,2.7-1.65,5.37-3.35,7.48-5.75,3.76-4.28,3.47-5.71-1.51-8.14,2.95-1.9,6.45-.73,9.63-1.7,1.7-.52,3.24,1.35,3.24,3.07-.01,7.58,1.18,15.21-.73,22.73Z"/>
  <path class="cls-22" d="M257,157.08c1.88.39,4.4-.97,5.56.99,1.39,2.33-.64,4.47-1.8,6.34-2.13,3.44-5.54,5.65-9.01,7.53-1.51.82-2.86,1.56-3.73,3.05-1.31.43-2.62.85-3.92,1.28.7-1.7,1.42-3.5.71-5.28-1.04-2.62-2.66-5.22-1.45-8.05,1.3-3.03,4.88-1.26,7-2.77.23-.16.46-.31.7-.46-.38-.22-.76-.45-1.14-.67,2.15-1.39,4.55-1.89,7.08-1.95Z"/>
  <path class="cls-38" d="M145.06,212.07c4.15,1.84,4.08,5.61,4.23,9.27.25,6.15.41,12.44-3.06,17.78-1.94,2.98-1.69,4.75,1.06,6.47,1.45.9,2.94,1.68,2.69,3.74-.3,2.5-2.41,1.08-3.59,1.49-3.25,1.14-3.57,3.46-3.35,6.31.14,1.86-.06,3.49-1.95.82,2.2-3.36,1.58-7.29,1.79-10.92.5-8.45,1.04-16.88,2.83-25.15.8-3.71-1.95-5.8-2.84-8.71.73-.37,1.46-.74,2.19-1.1Z"/>
  <path class="cls-2" d="M159.98,257.83c-2.3.02-2.08-1.65-1.96-3.08.26-3.24.65-6.46.98-9.69,2.17-2,.35-4.78,1.58-7.43,3.3,3.9,9.18,1.31,12.45,5.38-3.84,5.39-9.58,9.1-13.06,14.82Z"/>
  <path class="cls-14" d="M134.01,293.21c-6.37-.31-12.53-1.55-18.42-4.05,6.29.66,12.51,1.66,18.42,4.05Z"/>
  <path class="cls-47" d="M35.19,158.06c2.72.07,5.38.26,6.84,3.1-2.1,1.59-1.65,3.26-.33,5.14,2.39,3.41,5.15,6.5,8.12,9.4,1.67,3.5,6.27,5.49,5.34,10.33-3.06-1.38-3.78-4.95-6.38-6.8-1.21-.86-2.11-2.19-3.38-2.9-2.12-1.19-4.38-3.13-6.91-1.96-2.76,1.27-.94,4.15-1.33,6.28-.21,1.13-.09,2.31-.12,3.47-1.87-3.52-.55-7.34-1.02-10.99-.27-2.05.58-4.26-.87-6.14.02-2.98.03-5.96.05-8.93Z"/>
  <path class="cls-14" d="M20.96,187.48c-2.14-7.38-1.94-15.03-2.42-22.57-.67-10.67-1.35-21.38.45-32.04.04,7.48-.14,14.97.16,22.44.42,10.73,1.19,21.45,1.81,32.17Z"/>
  <path class="cls-32" d="M177.24,109.76c0,1.36,0,2.19,0,3.02q0,8.67-8.49,8.76-10.35.11-10.72-11.1c-.34-10.48-.34-10.56,9.32-10.55,3.43,0,7.99-1.71,9.96.79,1.54,1.96.05,6.31-.07,9.08Z"/>
  <path class="cls-38" d="M55.15,186.03c-1-3.94-4.63-6.26-6.09-9.91-1.17-2.16-3.11-3.78-4.18-5.99-.74-1.53-1.05-3.15.33-4.53,1.45-1.45,2.67-.12,3.94.45,9.68,5.66,17.88,13.25,26.02,20.77,14.63,13.53,29.5,26.87,42.73,41.81,6.67,7.54,13.96,14.66,19.19,23.42-5.09,1.05-7.86,5.48-5.97,9.95.88,2.08,1.01,4.11.87,6.26-6.1-5.91-10.24-13.37-15.72-19.8-12.93-15.19-27.59-28.62-42.08-42.22-6.78-6.36-13.2-12.99-19.03-20.2Z"/>
  <path class="cls-5" d="M49.15,166.05c-1.18.31-2.57-1.21-3.59.35-.88,1.34-.07,2.52.53,3.65,1.06,1.99,2.9,3.59,2.96,6.07-4.16-2.93-6.93-7.04-9.59-11.24-2.03-3.2-.65-4.1,2.56-3.71,2.04,2.12,5.49,2.18,7.12,4.89Z"/>
</svg>